<svg xmlns="http://www.w3.org/2000/svg" viewBox="0 0 51 51"><defs><style>.cls-1,.cls-2{fill:#fff;}.cls-1{opacity:0.3;}</style></defs><title>Asset 5</title><g id="Layer_2" data-name="Layer 2"><g id="design"><path class="cls-1" d="M25.5,51A25.5,25.5,0,1,1,51,25.5,25.53,25.53,0,0,1,25.5,51Zm0-50A24.5,24.5,0,1,0,50,25.5,24.53,24.53,0,0,0,25.5,1Z"/><path class="cls-2" d="M32.73,33.53H18.27a3.3,3.3,0,0,1-3.3-3.3V20.77a3.3,3.3,0,0,1,3.3-3.3H32.73a3.3,3.3,0,0,1,3.3,3.3v9.46A3.3,3.3,0,0,1,32.73,33.53Zm-14.46-14A1.25,1.25,0,0,0,17,20.77v9.46a1.25,1.25,0,0,0,1.24,1.24H32.73A1.25,1.25,0,0,0,34,30.23V20.77a1.25,1.25,0,0,0-1.24-1.24Z"/><rect class="cls-2" x="20.82" y="15.5" width="2.36" height="6"/><rect class="cls-2" x="27.82" y="15.5" width="2.36" height="6"/><rect class="cls-2" x="16" y="24.47" width="18" height="1.06"/></g></g></svg>