<svg xmlns="http://www.w3.org/2000/svg" viewBox="0 0 51 51"><defs><style>.cls-1,.cls-2{fill:#fff;}.cls-1{opacity:0.3;}</style></defs><title>Asset 6</title><g id="Layer_2" data-name="Layer 2"><g id="design"><path class="cls-1" d="M25.5,51A25.5,25.5,0,1,1,51,25.5,25.53,25.53,0,0,1,25.5,51Zm0-50A24.5,24.5,0,1,0,50,25.5,24.53,24.53,0,0,0,25.5,1Z"/><path class="cls-2" d="M34,19.5a2,2,0,0,1,2,2v8a2,2,0,0,1-2,2H17a2,2,0,0,1-2-2v-8a2,2,0,0,1,2-2H34m0-2H17a4,4,0,0,0-4,4v8a4,4,0,0,0,4,4H34a4,4,0,0,0,4-4v-8a4,4,0,0,0-4-4Z"/><rect class="cls-2" x="30" y="17.5" width="1" height="1"/><path class="cls-2" d="M31,30.5H30v-2h1Zm0-4H30v-2h1Zm0-4H30v-2h1Z"/><rect class="cls-2" x="30" y="32.5" width="1" height="1"/></g></g></svg>