<svg xmlns="http://www.w3.org/2000/svg" xmlns:xlink="http://www.w3.org/1999/xlink" viewBox="0 0 266 16.58"><defs><style>.a{fill:url(#a);}.b{fill:url(#b);}.c{fill:url(#c);}.d{fill:url(#d);}.e{fill:url(#e);}.f{fill:url(#g);}.g{fill:url(#h);}.h{fill:url(#i);}.i{fill:url(#j);}.j{fill:url(#k);}.k{fill:url(#l);}.l{fill:url(#n);}.m{fill:url(#o);}.n{fill:url(#p);}.o{fill:url(#q);}.p{fill:url(#r);}</style><linearGradient id="a" x1="-7.81" y1="7.08" x2="285.11" y2="7.08" gradientUnits="userSpaceOnUse"><stop offset="0" stop-color="#ffc2c2"/><stop offset="1" stop-color="#387cf1"/></linearGradient><linearGradient id="b" x1="-7.5" y1="8.77" x2="276" y2="8.77" xlink:href="#a"/><linearGradient id="c" x1="-8.95" y1="8.58" x2="283.82" y2="8.58" xlink:href="#a"/><linearGradient id="d" x1="-7.09" y1="8.5" x2="274.72" y2="8.5" xlink:href="#a"/><linearGradient id="e" x1="-15.07" y1="7.08" x2="299.91" y2="7.08" xlink:href="#a"/><linearGradient id="g" x1="-1.44" y1="8.75" x2="264.35" y2="8.75" xlink:href="#a"/><linearGradient id="h" x1="-6.18" y1="7.18" x2="273.7" y2="7.18" xlink:href="#a"/><linearGradient id="i" x1="-11.88" y1="7.08" x2="281.04" y2="7.08" xlink:href="#a"/><linearGradient id="j" x1="-16.42" y1="10.08" x2="283.71" y2="10.08" xlink:href="#a"/><linearGradient id="k" x1="-16.71" y1="10.08" x2="282.52" y2="10.08" xlink:href="#a"/><linearGradient id="l" x1="-9.14" y1="6.79" x2="276.88" y2="6.79" xlink:href="#a"/><linearGradient id="n" x1="-21.35" y1="8.68" x2="281.53" y2="8.68" xlink:href="#a"/><linearGradient id="o" x1="8.99" y1="7.58" x2="271.49" y2="7.58" xlink:href="#a"/><linearGradient id="p" x1="-24.04" y1="7.08" x2="278.83" y2="7.08" xlink:href="#a"/><linearGradient id="q" x1="-0.55" y1="7.08" x2="274.69" y2="7.08" xlink:href="#a"/><linearGradient id="r" x1="0.41" y1="7.08" x2="275.64" y2="7.08" xlink:href="#a"/></defs><title>specifies_Asset 4</title><path class="a" d="M9.93,2.29A6.08,6.08,0,0,1,11.79,7,6.39,6.39,0,0,1,10,11.82C8.77,13,6.92,13.58,4.45,13.58H0V.58H4.59A7.61,7.61,0,0,1,9.93,2.29ZM8,10.57A3.87,3.87,0,0,0,9,7.61,4,4,0,0,0,8,4.63a4.61,4.61,0,0,0-3.32-1H3v8H4.86A4.34,4.34,0,0,0,8,10.57Z"/><path class="b" d="M25.65,8.78a4.8,4.8,0,0,1-1.46,3.55,5,5,0,0,1-3.66,1.44,5,5,0,0,1-3.66-1.44,4.76,4.76,0,0,1-1.46-3.55,4.79,4.79,0,0,1,1.46-3.55,5,5,0,0,1,3.66-1.45,5,5,0,0,1,3.66,1.45A4.83,4.83,0,0,1,25.65,8.78Zm-7.52,0a2.78,2.78,0,0,0,.67,1.94,2.39,2.39,0,0,0,3.46,0,2.78,2.78,0,0,0,.67-1.94,2.79,2.79,0,0,0-.67-1.94,2.35,2.35,0,0,0-3.46,0A2.79,2.79,0,0,0,18.13,8.78Z"/><path class="c" d="M35,13.58H32.09l-3.4-10h2.88l2,6,1.95-6h2.7l1.95,6,2-6H45l-3.4,10h-2.9L36.83,8.14Z"/><path class="d" d="M51,8.18v5.4H49v-10h3V4.7a3.42,3.42,0,0,1,2.6-1.28A3.1,3.1,0,0,1,57,4.53a4.39,4.39,0,0,1,1,3v6.07H55V8.11c0-1.48-.6-2.23-1.79-2.23a2.31,2.31,0,0,0-1.55.58A2.2,2.2,0,0,0,51,8.18Z"/><path class="e" d="M66,13.58H63V.58h3Z"/><path class="b" d="M80.05,8.78a4.8,4.8,0,0,1-1.46,3.55,5.38,5.38,0,0,1-7.33,0A4.8,4.8,0,0,1,69.8,8.78a4.83,4.83,0,0,1,1.46-3.55,5.36,5.36,0,0,1,7.33,0A4.83,4.83,0,0,1,80.05,8.78Zm-7.53,0a2.78,2.78,0,0,0,.68,1.94,2.38,2.38,0,0,0,3.45,0,2.78,2.78,0,0,0,.68-1.94,2.8,2.8,0,0,0-.68-1.94,2.34,2.34,0,0,0-3.45,0A2.8,2.8,0,0,0,72.52,8.78Z"/><path class="f" d="M92,13.58H90V12.43a3.14,3.14,0,0,1-2.55,1.3,3.79,3.79,0,0,1-2.54-.88,2.93,2.93,0,0,1-1-2.35,2.48,2.48,0,0,1,1.06-2.19,5.13,5.13,0,0,1,2.91-.73H89V7.49c.55-1,0-1.55-1.09-1.55a4.29,4.29,0,0,0-1.48.28,4.5,4.5,0,0,0-1.33.69L83.9,5.17a7.17,7.17,0,0,1,4.35-1.39,4.48,4.48,0,0,1,2.88.88A2.66,2.66,0,0,1,92,7.45Zm-2-3.53V9.58H88.31c-1.08,0-1.62.34-1.62,1a.93.93,0,0,0,.38.8,1.86,1.86,0,0,0,1.11.28,1.94,1.94,0,0,0,1.27-.44A1.42,1.42,0,0,0,90,10.05Z"/><path class="g" d="M100.57,13.77a4.09,4.09,0,0,1-3.06-1.46,5.12,5.12,0,0,1-1.35-3.62,4.86,4.86,0,0,1,1.31-3.53,4.12,4.12,0,0,1,3.08-1.38A2.43,2.43,0,0,1,103,5V.58h3v13h-3V12.35A2.38,2.38,0,0,1,100.57,13.77Zm-1.7-5a2.69,2.69,0,0,0,.71,1.92,2.15,2.15,0,0,0,1.63.74,2,2,0,0,0,1.6-.74,2.85,2.85,0,0,0,.65-1.93,3,3,0,0,0-.65-2,2,2,0,0,0-1.61-.78,2.08,2.08,0,0,0-1.64.79A2.88,2.88,0,0,0,98.87,8.8Z"/><path class="h" d="M128.07,13.58l-1.17-3h-5.27l-1.17,3h-3.22l5.62-13h2.81l5.61,13Zm-3.8-8.65-1.58,3.65h3.15Z"/><path class="i" d="M140.22,3.78a4,4,0,0,1,3,1.41,5,5,0,0,1,1.33,3.56,5.06,5.06,0,0,1-1.33,3.58,4.07,4.07,0,0,1-3.09,1.44A4.44,4.44,0,0,1,137,12.35v4.23h-3v-13h3V5A5.21,5.21,0,0,1,140.22,3.78Zm-3,5a2.81,2.81,0,0,0,.66,1.93,2,2,0,0,0,1.59.74,2.18,2.18,0,0,0,1.64-.74,2.73,2.73,0,0,0,.7-1.92,2.92,2.92,0,0,0-.68-2,2.11,2.11,0,0,0-1.64-.79,2,2,0,0,0-1.61.78A2.94,2.94,0,0,0,137.25,8.79Z"/><path class="j" d="M154.19,3.78a4,4,0,0,1,3,1.41,5,5,0,0,1,1.33,3.56,5.1,5.1,0,0,1-1.33,3.58,4.07,4.07,0,0,1-3.09,1.44A4.29,4.29,0,0,1,151,12.35v4.23h-3v-13h3V5A5.07,5.07,0,0,1,154.19,3.78Zm-3,5a2.85,2.85,0,0,0,.65,1.93,2,2,0,0,0,1.6.74,2.18,2.18,0,0,0,1.64-.74,2.73,2.73,0,0,0,.7-1.92,2.88,2.88,0,0,0-.69-2,2.07,2.07,0,0,0-1.63-.79,2,2,0,0,0-1.62.78A3,3,0,0,0,151.22,8.79Z"/><path class="k" d="M174,3.38v.2h2v2h-2v8h-3v-8h-1v-2h1V3.44A4.43,4.43,0,0,1,172.16.93,3.3,3.3,0,0,1,174.55,0a3.76,3.76,0,0,1,2.61,1.08l-1,1.82a1.71,1.71,0,0,0-1.31-.69.87.87,0,0,0-.68.3C174,2.71,174,3.38,174,3.38Z"/><path class="b" d="M190.31,8.78a4.76,4.76,0,0,1-1.46,3.55,5.37,5.37,0,0,1-7.32,0,4.8,4.8,0,0,1-1.46-3.55,4.83,4.83,0,0,1,1.46-3.55,5.34,5.34,0,0,1,7.32,0A4.79,4.79,0,0,1,190.31,8.78Zm-7.52,0a2.78,2.78,0,0,0,.67,1.94,2.39,2.39,0,0,0,3.46,0,2.78,2.78,0,0,0,.67-1.94,2.79,2.79,0,0,0-.67-1.94,2.35,2.35,0,0,0-3.46,0A2.79,2.79,0,0,0,182.79,8.78Z"/><path class="l" d="M200.1,6.58a1.48,1.48,0,0,0-1.8.59,5.39,5.39,0,0,0-.3,2.26v4.15h-3v-9h3v.64c.06-.4.49-.73,1-1a4,4,0,0,1,2-.43v2.8Z"/><path class="m" d="M221,1.58v2h-6v3h6v2h-6v5h-2v-12Z"/><path class="n" d="M236.9,4.9c0,2.08-.85,3.43-2.55,4l3.4,4.65h-4l-2.78-4H229v4h-3V.58h5.1a7.5,7.5,0,0,1,4.47,1A3.88,3.88,0,0,1,236.9,4.9Zm-3.59,2.18a2,2,0,0,0,.56-1.59,1.7,1.7,0,0,0-.58-1.5,3.71,3.71,0,0,0-2-.41H229v4h2.2A3.22,3.22,0,0,0,233.31,7.08Z"/><path class="o" d="M251,.58v3h-6v3h6v2h-6v3h6v2h-9V.58Z"/><path class="p" d="M266,.58v3h-7v3h6v2h-6v3h7v2h-9V.58Z"/></svg>