<svg xmlns="http://www.w3.org/2000/svg" viewBox="0 0 29 29"><defs><style>.cls-1{fill:#fff;}</style></defs><title>Asset 6</title><g id="Layer_2" data-name="Layer 2"><g id="design"><path class="cls-1" d="M0,19.33V10.42c0-.37,0-.73,0-1.1s0-.78.06-1.17A13.3,13.3,0,0,1,.36,6.27a9.07,9.07,0,0,1,.75-2.08A5.46,5.46,0,0,1,2,2.92c.27-.29.54-.59.83-.86A6.42,6.42,0,0,1,4,1.21a7.17,7.17,0,0,1,1.7-.7A9.43,9.43,0,0,1,7,.23C7.49.16,8,.12,8.51.09S9.49,0,10,0l8.64,0,1.07,0c.38,0,.76,0,1.13.06a10.78,10.78,0,0,1,3,.59,7.31,7.31,0,0,1,2.1,1.16,7.76,7.76,0,0,1,1.61,1.77,7.32,7.32,0,0,1,1,2.29c.11.44.2.9.28,1.35a5.05,5.05,0,0,1,.06.67L29,9.17c0,.17,0,.35,0,.52,0,3,0,6,0,9,0,.55,0,1.1-.06,1.65,0,.37,0,.73-.08,1.1a10.13,10.13,0,0,1-.58,2.49,6.61,6.61,0,0,1-.81,1.56c-.23.33-.5.63-.76.94a6.64,6.64,0,0,1-1.31,1.11,7.46,7.46,0,0,1-2.3,1c-.45.12-.9.2-1.35.29-.23,0-.46,0-.69.06L19.83,29l-.48,0-9,0c-.57,0-1.14,0-1.71-.06-.37,0-.75,0-1.13-.08A10.12,10.12,0,0,1,5,28.25a6.9,6.9,0,0,1-1.92-1.09c-.22-.18-.44-.36-.64-.56A7.78,7.78,0,0,1,1.2,25a8.52,8.52,0,0,1-.81-2.12A9.2,9.2,0,0,1,.18,21.6C.12,21,.1,20.42.06,19.84c0-.17,0-.34,0-.51Zm2.63.3h0c0,.15,0,.3,0,.44,0,.32,0,.64.06,1s.11.82.2,1.23A4.86,4.86,0,0,0,4.63,25a5.13,5.13,0,0,0,1.46.82,8.93,8.93,0,0,0,2.41.45c.43,0,.87,0,1.3.06s1,0,1.47,0l6.92,0,1.18,0,1.31-.06a9.82,9.82,0,0,0,1.09-.12,6.36,6.36,0,0,0,1.9-.64A4.84,4.84,0,0,0,26,22.59a9.74,9.74,0,0,0,.34-2.14c0-.43,0-.85.06-1.28s0-.9,0-1.35l0-6.85c0-.45,0-.9,0-1.34s0-.84-.06-1.27-.06-.7-.11-1a5.89,5.89,0,0,0-.45-1.59A4.86,4.86,0,0,0,24.37,4a4.78,4.78,0,0,0-1.46-.82,8.7,8.7,0,0,0-2.43-.45l-1.31-.06-1.41,0h-.89L11,2.63l-1.32,0c-.42,0-.85,0-1.27.06s-.71.07-1.06.11a5.57,5.57,0,0,0-1.59.46A4.73,4.73,0,0,0,4,4.63a4.9,4.9,0,0,0-.82,1.46,8.76,8.76,0,0,0-.45,2.43c0,.44,0,.87,0,1.31s0,1,0,1.52c0,.33,0,.65,0,1,0,1.91,0,3.81,0,5.72C2.64,18.57,2.63,19.1,2.63,19.63Z"/><path class="cls-1" d="M13.8,22a7,7,0,0,1-4.53-2.14,7.23,7.23,0,0,1-2.21-5.72A7.15,7.15,0,0,1,9.31,9.15,7.25,7.25,0,0,1,14.9,7.06a7.08,7.08,0,0,1,4.72,2A7.27,7.27,0,0,1,22,14.9C21.78,18.64,18.69,22,13.8,22Zm.57-2.61a4.89,4.89,0,0,0,3.57-1.44,4.63,4.63,0,0,0,1.4-3.34,4.84,4.84,0,1,0-5,4.78Z"/><path class="cls-1" d="M22.23,8.52A1.74,1.74,0,0,1,20.48,6.7a1.75,1.75,0,1,1,1.75,1.82Z"/></g></g></svg>