<svg xmlns="http://www.w3.org/2000/svg" viewBox="0 0 238 489"><defs><style>.cls-1{fill:#00081e;opacity:0.6;}.cls-2{fill:#fff;opacity:0.7;}</style></defs><title>Asset 12</title><g id="Layer_2" data-name="Layer 2"><g id="design"><rect class="cls-1" width="238" height="489" rx="37.65"/><path class="cls-2" d="M200.35,1A36.69,36.69,0,0,1,237,37.65v413.7A36.69,36.69,0,0,1,200.35,488H37.65A36.69,36.69,0,0,1,1,451.35V37.65A36.69,36.69,0,0,1,37.65,1h162.7m0-1H37.65A37.76,37.76,0,0,0,0,37.65v413.7A37.76,37.76,0,0,0,37.65,489h162.7A37.76,37.76,0,0,0,238,451.35V37.65A37.76,37.76,0,0,0,200.35,0Z"/><path class="cls-2" d="M137,26a3,3,0,0,1,0,6H102a3,3,0,0,1,0-6h35m0-1H102a4,4,0,0,0,0,8h35a4,4,0,0,0,0-8Z"/><path class="cls-2" d="M119.5,436.5a18,18,0,1,1-18,18,18,18,0,0,1,18-18m0-1a19,19,0,1,0,19,19,19,19,0,0,0-19-19Z"/><path class="cls-2" d="M119.5,440.5a14,14,0,1,1-14,14,14,14,0,0,1,14-14m0-1a15,15,0,1,0,15,15,15,15,0,0,0-15-15Z"/></g></g></svg>