<svg xmlns="http://www.w3.org/2000/svg" viewBox="0 0 51 51"><defs><style>.cls-1,.cls-2{fill:#fff;}.cls-1{opacity:0.3;}</style></defs><title>Asset 7</title><g id="Layer_2" data-name="Layer 2"><g id="design"><path class="cls-1" d="M25.5,51A25.5,25.5,0,1,1,51,25.5,25.53,25.53,0,0,1,25.5,51Zm0-50A24.5,24.5,0,1,0,50,25.5,24.53,24.53,0,0,0,25.5,1Z"/><path class="cls-2" d="M25.13,35.5a1,1,0,0,1-.93-.62l-6.62-16a1,1,0,0,1,1.3-1.3l16,6.62a1,1,0,0,1-.12,1.89l-6.84,1.83-1.83,6.84a1,1,0,0,1-.9.74ZM20.35,20.35l4.57,11,1.21-4.55a1,1,0,0,1,.71-.71l4.55-1.21Z"/></g></g></svg>