<?xml version="1.0" encoding="utf-8"?>
<!-- Generator: Adobe Illustrator 23.0.1, SVG Export Plug-In . SVG Version: 6.00 Build 0)  -->
<svg version="1.1" id="artwork" xmlns="http://www.w3.org/2000/svg" xmlns:xlink="http://www.w3.org/1999/xlink" x="0px" y="0px"
	 viewBox="0 0 119.7 40" style="enable-background:new 0 0 119.7 40;" xml:space="preserve">
<style type="text/css">
	.Graphic_x0020_Style_x0020_4{fill:url(#SVGID_1_);}
	.st0{fill:#A3A3A2;}
	.st1{fill:#010101;}
	.st2{fill:#FFFFFF;stroke:#FFFFFF;stroke-width:0.2;stroke-miterlimit:10;}
	.st3{fill:#FFFFFF;}
	.st4{fill:#5BC9F4;}
	.st5{fill:url(#SVGID_2_);}
	.st6{fill:url(#SVGID_3_);}
	.st7{fill:url(#SVGID_4_);}
</style>
<linearGradient id="SVGID_1_" gradientUnits="userSpaceOnUse" x1="-97.2768" y1="-52.608" x2="-97.9839" y2="-51.9009">
	<stop  offset="0" style="stop-color:#EF4547"/>
	<stop  offset="1" style="stop-color:#C6186D"/>
</linearGradient>
<g>
	<g>
		<path class="st0" d="M119.7,8.4c0-0.3,0-0.6,0-0.9c0-0.7-0.1-1.3-0.2-2c-0.1-0.7-0.3-1.3-0.6-1.9c-0.6-1.2-1.6-2.2-2.8-2.8
			c-0.6-0.3-1.2-0.5-1.9-0.6c-0.7-0.1-1.3-0.2-2-0.2c-0.3,0-0.6,0-0.9,0c-0.4,0-0.7,0-1.1,0l0,0H9.5C9.2,0,8.8,0,8.4,0
			C8.1,0,7.8,0,7.5,0c-0.7,0-1.3,0.1-2,0.2C4.9,0.3,4.2,0.5,3.6,0.8C3,1.1,2.5,1.5,2,2C1.5,2.5,1.1,3,0.8,3.6
			C0.5,4.2,0.3,4.9,0.2,5.5C0.1,6.2,0,6.9,0,7.5c0,0.3,0,0.6,0,0.9v23.1c0,0.3,0,0.6,0,0.9c0,0.7,0.1,1.3,0.2,2
			c0.1,0.7,0.3,1.3,0.6,1.9C1.1,37,1.5,37.5,2,38c0.5,0.5,1,0.9,1.6,1.2c0.6,0.3,1.2,0.5,1.9,0.6c0.7,0.1,1.3,0.2,2,0.2
			c0.3,0,0.6,0,0.9,0c0.4,0,0.7,0,1.1,0h100.6c0.4,0,0.7,0,1.1,0c0.3,0,0.6,0,0.9,0c0.7,0,1.3-0.1,2-0.2c0.7-0.1,1.3-0.3,1.9-0.6
			c0.6-0.3,1.1-0.7,1.6-1.2c0.5-0.5,0.9-1,1.2-1.6c0.3-0.6,0.5-1.2,0.6-1.9c0.1-0.7,0.2-1.3,0.2-2c0-0.3,0-0.6,0-0.9
			c0-0.4,0-0.7,0-1.1V9.5C119.7,9.2,119.7,8.8,119.7,8.4z M118.8,30.5c0,0.4,0,0.7,0,1.1c0,0.3,0,0.6,0,0.9c0,0.6-0.1,1.2-0.2,1.9
			c-0.1,0.6-0.3,1.1-0.5,1.7c-0.3,0.5-0.6,1-1,1.4c-0.4,0.4-0.9,0.8-1.4,1c-0.5,0.3-1.1,0.5-1.7,0.5c-0.6,0.1-1.2,0.2-1.9,0.2
			c-0.3,0-0.6,0-0.9,0l-1.1,0l-101.7,0c-0.3,0-0.6,0-0.9,0c-0.6,0-1.3-0.1-1.9-0.2c-0.6-0.1-1.1-0.3-1.7-0.5c-0.5-0.3-1-0.6-1.4-1
			c-0.4-0.4-0.8-0.9-1-1.4c-0.3-0.5-0.4-1.1-0.5-1.7c-0.1-0.6-0.2-1.2-0.2-1.9c0-0.2,0-0.9,0-0.9V8.4c0,0,0-0.7,0-0.9
			c0-0.6,0.1-1.3,0.2-1.9C1.1,5.1,1.3,4.5,1.6,4c0.3-0.5,0.6-1,1-1.4C3,2.2,3.5,1.9,4,1.6c0.5-0.3,1.1-0.4,1.7-0.5
			c0.6-0.1,1.2-0.2,1.9-0.2l0.9,0h102.8l0.9,0c0.6,0,1.2,0.1,1.9,0.2c0.6,0.1,1.1,0.3,1.7,0.5c1,0.5,1.9,1.4,2.4,2.4
			c0.3,0.5,0.4,1.1,0.5,1.6c0.1,0.6,0.2,1.3,0.2,1.9c0,0.3,0,0.6,0,0.9c0,0.4,0,0.7,0,1.1V30.5z"/>
		<path class="st1" d="M118.8,7.6c0-0.6-0.1-1.3-0.2-1.9c-0.1-0.6-0.3-1.1-0.5-1.6c-0.5-1-1.4-1.9-2.4-2.4c-0.5-0.3-1.1-0.4-1.7-0.5
			c-0.6-0.1-1.2-0.2-1.9-0.2l-0.9,0H8.4l-0.9,0c-0.6,0-1.3,0.1-1.9,0.2C5.1,1.1,4.5,1.3,4,1.6c-0.5,0.3-1,0.6-1.4,1
			C2.2,3,1.9,3.5,1.6,4C1.3,4.5,1.1,5.1,1.1,5.7C1,6.3,0.9,6.9,0.9,7.5c0,0.2,0,0.9,0,0.9v23.1c0,0,0,0.7,0,0.9
			c0,0.6,0.1,1.3,0.2,1.9c0.1,0.6,0.3,1.1,0.5,1.7c0.3,0.5,0.6,1,1,1.4c0.4,0.4,0.9,0.8,1.4,1c0.5,0.3,1.1,0.4,1.7,0.5
			c0.6,0.1,1.2,0.2,1.9,0.2c0.3,0,0.6,0,0.9,0l101.7,0l1.1,0c0.3,0,0.6,0,0.9,0c0.6,0,1.3-0.1,1.9-0.2c0.6-0.1,1.1-0.3,1.7-0.5
			c0.5-0.3,1-0.6,1.4-1c0.4-0.4,0.8-0.9,1-1.4c0.3-0.5,0.4-1.1,0.5-1.7c0.1-0.6,0.2-1.2,0.2-1.9c0-0.3,0-0.6,0-0.9
			c0-0.4,0-0.7,0-1.1V9.5c0-0.4,0-0.7,0-1.1C118.8,8.1,118.8,7.8,118.8,7.6z"/>
	</g>
	<g>
		<g>
			<path class="st2" d="M42.2,11.2c0,0.7-0.2,1.3-0.6,1.7c-0.5,0.5-1.1,0.8-1.9,0.8c-0.7,0-1.4-0.3-1.9-0.8C37.2,12.4,37,11.7,37,11
				c0-0.8,0.3-1.4,0.8-1.9c0.5-0.5,1.2-0.8,1.9-0.8c0.4,0,0.7,0.1,1.1,0.2c0.3,0.1,0.6,0.3,0.8,0.6l-0.5,0.5
				c-0.3-0.4-0.8-0.6-1.4-0.6c-0.5,0-1,0.2-1.4,0.6c-0.4,0.4-0.6,0.9-0.6,1.5c0,0.6,0.2,1.1,0.6,1.5c0.4,0.4,0.9,0.6,1.4,0.6
				c0.6,0,1.1-0.2,1.4-0.6c0.3-0.3,0.4-0.6,0.4-1h-1.9v-0.6h2.5C42.2,10.9,42.2,11.1,42.2,11.2z"/>
			<path class="st2" d="M46.2,9h-2.4v1.6h2.1v0.6h-2.1v1.6h2.4v0.6h-3V8.4h3V9z"/>
			<path class="st2" d="M49,13.6h-0.7V9h-1.4V8.4h3.6V9H49V13.6z"/>
			<path class="st2" d="M53,13.6V8.4h0.7v5.2H53z"/>
			<path class="st2" d="M56.6,13.6h-0.7V9h-1.4V8.4H58V9h-1.4V13.6z"/>
			<path class="st2" d="M64.8,12.9c-0.5,0.5-1.1,0.8-1.9,0.8c-0.8,0-1.4-0.3-1.9-0.8c-0.5-0.5-0.8-1.2-0.8-1.9s0.3-1.4,0.8-1.9
				c0.5-0.5,1.1-0.8,1.9-0.8c0.8,0,1.4,0.3,1.9,0.8c0.5,0.5,0.8,1.2,0.8,1.9C65.5,11.7,65.3,12.4,64.8,12.9z M61.5,12.5
				c0.4,0.4,0.9,0.6,1.4,0.6s1-0.2,1.4-0.6c0.4-0.4,0.6-0.9,0.6-1.5c0-0.6-0.2-1.1-0.6-1.5c-0.4-0.4-0.9-0.6-1.4-0.6s-1,0.2-1.4,0.6
				c-0.4,0.4-0.6,0.9-0.6,1.5C60.9,11.6,61.1,12.1,61.5,12.5z"/>
			<path class="st2" d="M66.5,13.6V8.4h0.8l2.5,4h0l0-1v-3h0.7v5.2h-0.7l-2.6-4.2h0l0,1v3.2H66.5z"/>
		</g>
		<path class="st3" d="M60,21.1c-2,0-3.7,1.5-3.7,3.7c0,2.1,1.7,3.7,3.7,3.7c2,0,3.7-1.6,3.7-3.7C63.7,22.6,62.1,21.1,60,21.1z
			 M60,27c-1.1,0-2.1-0.9-2.1-2.2c0-1.3,1-2.2,2.1-2.2s2.1,0.9,2.1,2.2C62.1,26.1,61.2,27,60,27z M52,21.1c-2,0-3.7,1.5-3.7,3.7
			c0,2.1,1.7,3.7,3.7,3.7c2,0,3.7-1.6,3.7-3.7C55.7,22.6,54,21.1,52,21.1z M52,27c-1.1,0-2.1-0.9-2.1-2.2c0-1.3,1-2.2,2.1-2.2
			c1.1,0,2.1,0.9,2.1,2.2C54.1,26.1,53.1,27,52,27z M42.5,22.2v1.6h3.7c-0.1,0.9-0.4,1.5-0.8,2c-0.5,0.5-1.4,1.1-2.9,1.1
			c-2.3,0-4.1-1.8-4.1-4.1s1.8-4.1,4.1-4.1c1.2,0,2.1,0.5,2.8,1.1l1.1-1.1c-0.9-0.9-2.2-1.6-3.9-1.6c-3.1,0-5.8,2.6-5.8,5.7
			c0,3.1,2.6,5.7,5.8,5.7c1.7,0,3-0.6,4-1.6c1-1,1.3-2.5,1.3-3.6c0-0.4,0-0.7-0.1-1H42.5z M81.5,23.4c-0.3-0.8-1.2-2.3-3.1-2.3
			c-1.9,0-3.5,1.5-3.5,3.7c0,2.1,1.6,3.7,3.6,3.7c1.7,0,2.7-1,3.1-1.6L80.4,26c-0.4,0.6-1,1-1.8,1c-0.8,0-1.4-0.4-1.8-1.1l4.9-2
			L81.5,23.4z M76.5,24.7c0-1.4,1.1-2.1,1.9-2.1c0.6,0,1.2,0.3,1.4,0.8L76.5,24.7z M72.5,28.2h1.6V17.4h-1.6V28.2z M69.9,21.9
			L69.9,21.9c-0.4-0.4-1.1-0.8-2-0.8c-1.8,0-3.5,1.6-3.5,3.7c0,2.1,1.7,3.7,3.5,3.7c0.9,0,1.6-0.4,1.9-0.8h0.1v0.5
			c0,1.4-0.7,2.2-2,2.2c-1,0-1.6-0.7-1.8-1.3l-1.4,0.6c0.4,1,1.5,2.2,3.2,2.2c1.9,0,3.5-1.1,3.5-3.8v-6.6h-1.5V21.9z M68,27
			c-1.1,0-2-0.9-2-2.2c0-1.3,0.9-2.2,2-2.2c1.1,0,2,0.9,2,2.2C70,26.1,69.1,27,68,27z M89.1,17.4h-3.9v10.8h1.6v-4.1h2.2
			c1.8,0,3.5-1.3,3.5-3.3S90.8,17.4,89.1,17.4z M89.1,22.6h-2.3v-3.7h2.3c1.2,0,1.9,1,1.9,1.8C91,21.6,90.3,22.6,89.1,22.6z
			 M99,21.1c-1.2,0-2.4,0.5-2.9,1.6l1.4,0.6c0.3-0.6,0.9-0.8,1.5-0.8c0.8,0,1.7,0.5,1.7,1.4V24c-0.3-0.2-0.9-0.4-1.7-0.4
			c-1.5,0-3.1,0.8-3.1,2.4c0,1.4,1.3,2.4,2.7,2.4c1.1,0,1.7-0.5,2.1-1.1h0.1v0.8h1.6v-4.1C102.3,22.2,100.9,21.1,99,21.1z M98.9,27
			c-0.5,0-1.3-0.3-1.3-0.9c0-0.8,0.9-1.2,1.7-1.2c0.7,0,1,0.2,1.5,0.4C100.6,26.3,99.8,27,98.9,27z M108,21.3l-1.8,4.7h-0.1
			l-1.9-4.7h-1.7l2.9,6.5l-1.6,3.6h1.7l4.4-10.2H108z M93.5,28.2h1.6V17.4h-1.6V28.2z"/>
		<g>
			<g>
				<g>
					<path class="st4" d="M10.3,8.9c-0.3,0.3-0.4,0.7-0.4,1.2v19c0,0.5,0.1,0.9,0.4,1.2l0.1,0.1L21,19.7v-0.1v-0.1L10.3,8.9
						L10.3,8.9z"/>
					<linearGradient id="SVGID_2_" gradientUnits="userSpaceOnUse" x1="28.1048" y1="19.5944" x2="7.2644" y2="19.5944">
						<stop  offset="0" style="stop-color:#FEE000"/>
						<stop  offset="0.1941" style="stop-color:#FCCF0B"/>
						<stop  offset="0.5469" style="stop-color:#FAB318"/>
						<stop  offset="0.8279" style="stop-color:#F9A21B"/>
						<stop  offset="1" style="stop-color:#F99B1C"/>
					</linearGradient>
					<path class="st5" d="M24.6,23.3L21,19.7v-0.1v-0.1l3.6-3.6l0.1,0l4.2,2.4c1.2,0.7,1.2,1.8,0,2.5L24.6,23.3L24.6,23.3z"/>
					<linearGradient id="SVGID_3_" gradientUnits="userSpaceOnUse" x1="22.6965" y1="21.5708" x2="3.095" y2="41.1722">
						<stop  offset="0" style="stop-color:#EF4547"/>
						<stop  offset="1" style="stop-color:#C6186D"/>
					</linearGradient>
					<path class="st6" d="M24.7,23.2L21,19.6L10.3,30.3c0.4,0.4,1.1,0.5,1.8,0.1L24.7,23.2"/>
					<linearGradient id="SVGID_4_" gradientUnits="userSpaceOnUse" x1="3.0077" y1="-2.0715" x2="19.0117" y2="13.9326">
						<stop  offset="0" style="stop-color:#279E6F"/>
						<stop  offset="0.3168" style="stop-color:#4DAB6D"/>
						<stop  offset="0.7398" style="stop-color:#6ABA6A"/>
						<stop  offset="1" style="stop-color:#74C169"/>
					</linearGradient>
					<path class="st7" d="M24.7,16L12.1,8.8c-0.7-0.4-1.4-0.4-1.8,0.1L21,19.6L24.7,16z"/>
				</g>
			</g>
		</g>
	</g>
</g>
</svg>
