<svg xmlns="http://www.w3.org/2000/svg" viewBox="0 0 51 51"><defs><style>.cls-1,.cls-2{fill:#fff;}.cls-1{opacity:0.3;}</style></defs><title>Asset 8</title><g id="Layer_2" data-name="Layer 2"><g id="design"><path class="cls-1" d="M25.5,51A25.5,25.5,0,1,1,51,25.5,25.53,25.53,0,0,1,25.5,51Zm0-50A24.5,24.5,0,1,0,50,25.5,24.53,24.53,0,0,0,25.5,1Z"/><path class="cls-2" d="M25.5,36.1a3.17,3.17,0,0,1-2.15-.84C20.79,32.94,16.5,28.38,16.5,24a9,9,0,1,1,18,0c0,4.42-4.29,9-6.85,11.29A3.21,3.21,0,0,1,25.5,36.1Zm0-19.2a7.05,7.05,0,0,0-7,7.08c0,3.77,4.33,8.11,6.19,9.81a1.22,1.22,0,0,0,1.62,0c1.86-1.69,6.19-6,6.19-9.81A7.05,7.05,0,0,0,25.5,16.9Z"/><path class="cls-2" d="M25.5,26.35a3,3,0,1,1,3-3A3,3,0,0,1,25.5,26.35Zm0-5a2,2,0,1,0,2,2A2,2,0,0,0,25.5,21.37Z"/></g></g></svg>